# xmcd
#
# Track frame offsets: 
#        150
#        15311
#        32409
#        45315
#        58232
#        70522
#        78622
#        92576
#        104969
#        119735
#
# Disc length: 1777 seconds
#
# Revision: 0
# Processed by: cddbd v1.4PL0 Copyright (c) Steve Scherf et al.
# Submitted via: ExactAudioCopy v0.90b3
#
DISCID=7e06ef0a
DTITLE=Jeannie C. Riley - Good Old Country
DYEAR=1900
DGENRE=Country
TTITLE0=Harper Valley P.T.A.
TTITLE1=Oh, Singer
TTITLE2=There Never Was A Time
TTITLE3=Good Enough To Be Your Wife
TTITLE4=Country Girl
TTITLE5=Blue Moon Of Kentucky
TTITLE6=Words
TTITLE7=Hang Up Your Rhinestone Suit
TTITLE8=Here's To The Cowboys
TTITLE9=Rockin' Pneumonia and The Boogie Woogie Flu
EXTD=
EXTT0=
EXTT1=
EXTT2=
EXTT3=
EXTT4=
EXTT5=
EXTT6=
EXTT7=
EXTT8=
EXTT9=
PLAYORDER=
